<svg width="180" height="169" viewBox="0 0 180 169" fill="none" xmlns="http://www.w3.org/2000/svg">
<path d="M117.692 50.2432C117.692 35.1077 105.294 22.8378 90 22.8378C74.706 22.8378 62.3077 35.1077 62.3077 50.2432C62.3077 65.3788 74.706 77.6487 90 77.6487V100.486C61.9609 100.486 39.2308 77.9918 39.2308 50.2432C39.2308 22.4947 61.9609 0 90 0C118.039 0 140.769 22.4947 140.769 50.2432C140.769 77.9918 118.039 100.486 90 100.486V77.6487C105.294 77.6487 117.692 65.3788 117.692 50.2432Z" fill="url(#paint0_linear_351_6)"/>
<path d="M156.923 118.757C156.923 103.621 144.525 91.3514 129.231 91.3514C113.937 91.3514 101.538 103.621 101.538 118.757C101.538 133.892 113.937 146.162 129.231 146.162V169C101.192 169 78.4615 146.505 78.4615 118.757C78.4615 91.0082 101.192 68.5135 129.231 68.5135C157.27 68.5135 180 91.0082 180 118.757C180 146.505 157.27 169 129.231 169V146.162C144.525 146.162 156.923 133.892 156.923 118.757Z" fill="url(#paint1_linear_351_6)"/>
<path d="M78.4615 117.615C78.4615 102.479 66.0633 90.2095 50.7692 90.2095C35.4752 90.2095 23.0769 102.479 23.0769 117.615C23.0769 132.75 35.4752 145.02 50.7692 145.02V167.858C22.7302 167.858 0 145.363 0 117.615C0 89.8663 22.7302 67.3716 50.7692 67.3716C78.8083 67.3716 101.538 89.8663 101.538 117.615C101.538 145.363 78.8083 167.858 50.7692 167.858V145.02C66.0633 145.02 78.4615 132.75 78.4615 117.615Z" fill="url(#paint2_linear_351_6)"/>
<defs>
<linearGradient id="paint0_linear_351_6" x1="90" y1="0" x2="90" y2="169" gradientUnits="userSpaceOnUse">
<stop stop-color="#388AFE"/>
<stop offset="1" stop-color="#00DCD9"/>
</linearGradient>
<linearGradient id="paint1_linear_351_6" x1="90" y1="0" x2="90" y2="169" gradientUnits="userSpaceOnUse">
<stop stop-color="#388AFE"/>
<stop offset="1" stop-color="#00DCD9"/>
</linearGradient>
<linearGradient id="paint2_linear_351_6" x1="90" y1="0" x2="90" y2="169" gradientUnits="userSpaceOnUse">
<stop stop-color="#388AFE"/>
<stop offset="1" stop-color="#00DCD9"/>
</linearGradient>
</defs>
</svg>
